<?xml version="1.0" encoding="UTF-8"?>
<svg xmlns="http://www.w3.org/2000/svg" width="109" height="52" viewBox="0 0 109 52" fill="none">
  <g clip-path="url(#clip0_50_3201)">
    <path d="M3.0008 7.04224H18.7634L17.3039 11.6045H13.2173V28.4174H8.12989V11.6045H3.0008V7.04224Z" fill="#FAFAFA"></path>
    <path d="M45.0343 7.04224H61.1722L59.7127 11.6045H55.2508V28.4597H50.1634V11.6468H45.0343V7.04224Z" fill="#FAFAFA"></path>
    <path d="M19.7225 14.3081V13.8434H24.7682V28.4174H19.7642V27.6993L19.7225 14.3081Z" fill="#FAFAFA"></path>
    <path d="M27.2285 8.01384V7H32.1907V16.9695L37.2364 12.027H43.2829L36.9445 18.1945L44.0335 28.4174H38.4874L33.7336 21.3205L32.2324 22.7991V28.4174H27.2285V8.01384Z" fill="#FAFAFA"></path>
    <path d="M79.1031 8.01384V7H84.0654V16.9695L89.1528 11.9847H95.1993L88.8609 18.1945L95.9499 28.4174H90.4038L85.6917 21.3205L84.1905 22.7991V28.4174H79.1449V27.9528L79.1031 8.01384Z" fill="#FAFAFA"></path>
    <path d="M76.2259 16.2513C75.788 15.229 75.1667 14.2997 74.3911 13.5055C73.6029 12.7113 72.6647 12.0819 71.6389 11.6468C71.5555 11.6045 71.4304 11.5623 71.347 11.5201C71.2636 11.4778 71.2636 11.4778 71.2219 11.4778C71.1802 11.4778 71.0968 11.4356 71.0551 11.4356C71.0134 11.4356 70.9717 11.3933 70.93 11.3933C70.8883 11.3933 70.8466 11.3511 70.8049 11.3511C70.7632 11.3511 70.6798 11.3088 70.6381 11.3088H70.5964C70.3462 11.2666 70.096 11.1821 69.8458 11.1399H69.8041C69.7207 11.1399 69.6373 11.0976 69.5539 11.0976C69.3621 11.0638 69.1661 11.0469 68.9701 11.0554H67.6774L66.6766 11.1821C66.6182 11.1779 66.5598 11.1906 66.5098 11.2243C66.4514 11.2243 66.393 11.237 66.343 11.2666C66.2179 11.3088 66.1345 11.3088 66.0094 11.3511C65.288 11.5623 64.5916 11.8453 63.9244 12.1959C63.2864 12.5719 62.6984 13.0239 62.173 13.5477C61.6559 14.0673 61.2097 14.6461 60.8386 15.2797C60.4633 15.9303 60.1672 16.6273 59.9629 17.3497C59.7586 18.1227 59.6585 18.9169 59.671 19.7153C59.6543 20.5052 59.7669 21.2867 60.0046 22.0387C60.2006 22.7653 60.4967 23.4623 60.8803 24.1086C61.2639 24.7465 61.7101 25.3379 62.2147 25.8828C62.7318 26.4151 63.3239 26.8713 63.9661 27.2346C64.6124 27.6275 65.3172 27.9105 66.0511 28.0795C66.1762 28.1217 66.3013 28.1217 66.4264 28.164C66.4723 28.1598 66.5181 28.1724 66.5515 28.2062C66.6349 28.2062 66.7183 28.2485 66.8017 28.2485C66.8601 28.2485 66.9184 28.2611 66.9685 28.2907C67.0519 28.2907 67.1353 28.333 67.2187 28.333H67.3438C67.4689 28.333 67.594 28.3752 67.7608 28.3752H69.0952C69.262 28.3752 69.4288 28.333 69.5539 28.333C69.679 28.333 69.7624 28.2907 69.8458 28.2907C69.9042 28.2949 69.9625 28.2823 70.0126 28.2485C70.096 28.2485 70.1377 28.2062 70.2211 28.2062C70.2669 28.2104 70.3128 28.1978 70.3462 28.164C70.4713 28.1217 70.5964 28.1217 70.6798 28.0795C71.3887 27.8767 72.0767 27.5937 72.7231 27.2346C73.3527 26.846 73.9365 26.394 74.4745 25.8828C74.9999 25.359 75.4502 24.7592 75.8089 24.1086C76.1842 23.4581 76.4802 22.761 76.6846 22.0387C76.8847 21.2825 76.9848 20.501 76.9765 19.7153C76.9514 18.524 76.6929 17.3454 76.2259 16.2513ZM72.3061 20.8559C72.2185 21.2149 72.0767 21.5529 71.8891 21.8697C71.7014 22.1781 71.4804 22.4611 71.2219 22.7146C70.9633 22.9638 70.6839 23.1877 70.3879 23.3905C70.071 23.5679 69.7332 23.7073 69.3871 23.8129C69.0743 23.8974 68.7532 23.9439 68.428 23.9396H68.2612C68.036 23.9481 67.815 23.9354 67.594 23.8974C67.4522 23.8974 67.3104 23.8636 67.177 23.8129C66.8225 23.7242 66.4889 23.5806 66.1762 23.3905C65.8551 23.2257 65.5715 22.9976 65.3422 22.7146C65.0962 22.4527 64.8751 22.1696 64.675 21.8697C64.4873 21.5529 64.3456 21.2149 64.258 20.8559C64.1621 20.4841 64.1079 20.0997 64.0912 19.7153C64.087 19.3266 64.1412 18.9422 64.258 18.5747C64.3456 18.2156 64.4873 17.8777 64.675 17.5609C64.8626 17.2525 65.0836 16.9695 65.3422 16.716C65.5924 16.4668 65.8718 16.2555 66.1762 16.0823C66.4931 15.9049 66.8309 15.7655 67.177 15.6599C67.3271 15.6134 67.4814 15.5839 67.6357 15.5754C67.8567 15.5416 68.0777 15.5247 68.3029 15.5332H68.4697C68.9742 15.5416 69.4705 15.6557 69.9292 15.8711C70.4254 16.0739 70.8799 16.3781 71.2636 16.7582C71.6389 17.1553 71.9475 17.6116 72.181 18.11C72.402 18.6465 72.5187 19.221 72.5146 19.7998C72.477 20.1588 72.4062 20.5095 72.3061 20.8559Z" fill="#FAFAFA"></path>
    <path d="M24.8099 9.61909C24.8057 11.0385 23.6673 12.1917 22.2662 12.1959C20.8692 12.2044 19.7308 11.068 19.7225 9.65288C19.7225 9.64021 19.7225 9.63176 19.7225 9.61909C19.7266 8.19971 20.865 7.04646 22.2662 7.04224C23.6631 7.06336 24.789 8.20393 24.8099 9.61909Z" fill="#FAFAFA"></path>
    <path d="M105.791 15.1953C105.791 17.016 104.336 18.4902 102.539 18.4902C100.741 18.4902 99.2859 17.016 99.2859 15.1953C99.2859 13.3746 100.741 11.9003 102.539 11.9003C104.336 11.9003 105.787 13.3746 105.791 15.1953Z" fill="white"></path>
    <path d="M105.791 25.1647C105.791 26.9854 104.336 28.4597 102.539 28.4597C100.741 28.4597 99.2859 26.9854 99.2859 25.1647C99.2859 23.344 100.741 21.8697 102.539 21.8697C104.307 21.8401 105.762 23.2722 105.791 25.0633C105.791 25.0971 105.791 25.1309 105.791 25.1647Z" fill="white"></path>
    <path d="M10.4651 34.754V42.3155H8.63029V37.7955L6.96229 42.3578H5.50279L3.8348 37.7955V42.3578H2V34.754H4.1684L6.25339 39.9922L8.33839 34.754H10.4651Z" fill="#FAFAFA"></path>
    <path d="M11.7578 37.6687C11.9746 37.221 12.304 36.8408 12.7169 36.5704C13.1172 36.3169 13.5801 36.186 14.0513 36.1902C14.4266 36.1775 14.8019 36.2663 15.1355 36.4437C15.4399 36.6 15.6984 36.8323 15.8861 37.1196V36.2747H17.7209V42.3155H15.8861V41.4707C15.7109 41.7706 15.4482 42.0029 15.1355 42.1465C14.8019 42.3197 14.4266 42.4042 14.0513 42.4C13.5801 42.4 13.1172 42.2733 12.7169 42.0198C12.304 41.7495 11.9746 41.3693 11.7578 40.9215C11.5117 40.4103 11.395 39.8443 11.4242 39.274C11.4242 38.7206 11.5368 38.1757 11.7578 37.6687ZM15.5108 38.2179C15.2689 37.9729 14.9353 37.8377 14.5934 37.8377C14.2473 37.8293 13.9137 37.9644 13.676 38.2179C13.1756 38.8642 13.1756 39.7682 13.676 40.4146C13.9095 40.6807 14.2431 40.8328 14.5934 40.837C14.9395 40.8454 15.2731 40.7103 15.5108 40.4568C15.7777 40.1569 15.9111 39.7598 15.8861 39.3585C15.9111 38.9445 15.7777 38.5347 15.5108 38.2179Z" fill="#FAFAFA"></path>
    <path d="M21.6407 36.5282C21.9659 36.3212 22.3412 36.2198 22.7249 36.2325V38.1757H22.2245C21.8533 38.1461 21.4822 38.2475 21.182 38.4714C20.9359 38.7629 20.815 39.1431 20.8484 39.5275V42.3156H19.0136V36.317H20.8484V37.3308C21.0444 37.0056 21.3196 36.7268 21.6407 36.5282Z" fill="#FAFAFA"></path>
    <path d="M27.2284 42.3578L25.4354 39.8232V42.3578H23.6006V34.3315H25.4354V38.7671L27.2284 36.317H29.4802L27.0199 39.3585L29.5219 42.3578H27.2284Z" fill="#FAFAFA"></path>
    <path d="M35.7352 39.7809H31.6069C31.6195 40.102 31.7529 40.4061 31.9822 40.6258C32.2033 40.8159 32.4826 40.9215 32.7745 40.9215C33.1832 40.9384 33.5585 40.7061 33.7336 40.3301H35.6935C35.5976 40.7187 35.4141 41.082 35.1514 41.3862C34.8887 41.7072 34.5635 41.9649 34.1923 42.1466C33.7837 42.3198 33.3417 42.4043 32.8996 42.4C32.3617 42.4085 31.8321 42.2775 31.3567 42.0198C30.898 41.7664 30.5227 41.3862 30.2725 40.9215C29.9973 40.4188 29.8681 39.8485 29.8972 39.274C29.8806 38.6995 30.0098 38.1334 30.2725 37.6265C30.5186 37.1745 30.8772 36.7943 31.315 36.5282C31.8029 36.2663 32.3492 36.1353 32.8996 36.148C33.4376 36.1395 33.9672 36.2705 34.4425 36.5282C34.8887 36.7648 35.2515 37.1323 35.485 37.5843C35.7436 38.0785 35.8728 38.6319 35.8603 39.1895C35.7978 39.3838 35.7561 39.5782 35.7352 39.7809ZM33.9004 38.7248C33.9046 38.4334 33.7837 38.1546 33.5668 37.9645C33.3458 37.7744 33.0664 37.6688 32.7745 37.6688C32.491 37.6603 32.2116 37.7532 31.9822 37.9222C31.7612 38.1165 31.6278 38.3869 31.6069 38.6826H33.9004V38.7248Z" fill="#FAFAFA"></path>
    <path d="M40.0303 40.7525V42.3155H39.1129C38.5542 42.3493 38.0037 42.1677 37.57 41.8086C37.1947 41.4707 37.0279 40.9637 37.0279 40.2034V37.8377H36.319V36.317H37.0279V34.8384H38.8627V36.317H40.072V37.8377H38.8627V40.2456C38.8502 40.385 38.8961 40.5202 38.9878 40.6258C39.1046 40.723 39.2547 40.7694 39.4048 40.7525H40.0303Z" fill="#FAFAFA"></path>
    <path d="M41.1979 35.3876C40.8059 34.9905 40.8059 34.3484 41.1979 33.9514C41.4106 33.7444 41.6983 33.6345 41.9902 33.6556C42.2821 33.643 42.5657 33.7486 42.7825 33.9514C43.1745 34.3484 43.1745 34.9905 42.7825 35.3876C42.328 35.7805 41.6525 35.7805 41.1979 35.3876ZM42.8659 36.317V42.3578H41.0311V36.317H42.8659Z" fill="#FAFAFA"></path>
    <path d="M49.4962 36.9506C49.9341 37.4786 50.1592 38.1588 50.1217 38.8515V42.3578H48.2869V39.105C48.3203 38.7671 48.216 38.4333 47.995 38.1757C47.528 37.7236 46.7941 37.7236 46.327 38.1757C46.1143 38.4333 46.0101 38.7671 46.0351 39.105V42.3578H44.2003V36.3169H46.0351V37.1196C46.2269 36.845 46.4855 36.6253 46.7857 36.4859C47.111 36.3254 47.4696 36.2536 47.8282 36.2747C48.4579 36.224 49.075 36.4775 49.4962 36.9506Z" fill="#FAFAFA"></path>
    <path d="M54.7504 36.4859C55.0548 36.6422 55.3133 36.8746 55.501 37.1618V36.317H57.3358V42.3155C57.3358 42.8394 57.219 43.3589 57.0022 43.8363C56.7937 44.2925 56.4434 44.6643 56.0014 44.8924C54.7796 45.4796 53.3451 45.3824 52.2067 44.6389C51.6646 44.2461 51.3268 43.6251 51.2893 42.9492H53.0824C53.145 43.1815 53.2951 43.3801 53.4994 43.4984C53.7371 43.642 54.0123 43.7138 54.2917 43.7096C54.6295 43.7138 54.9547 43.5955 55.2091 43.3716C55.4676 43.0844 55.5886 42.6999 55.5427 42.3155V41.4707C55.3676 41.7706 55.1048 42.0029 54.7921 42.1466C54.4585 42.324 54.0832 42.4127 53.7079 42.4C53.2367 42.4 52.7738 42.2733 52.3735 42.0198C51.9607 41.7495 51.6312 41.3693 51.4144 40.9215C51.1684 40.4104 51.0516 39.8443 51.0808 39.274C51.0725 38.7079 51.1892 38.1461 51.4144 37.6265C51.6312 37.1787 51.9607 36.7985 52.3735 36.5282C52.7738 36.2747 53.2367 36.1438 53.7079 36.148C54.0665 36.224 54.4168 36.3339 54.7504 36.4859ZM55.084 38.2179C54.5753 37.711 53.7579 37.711 53.2492 38.2179C52.7488 38.8642 52.7488 39.7683 53.2492 40.4146C53.4827 40.6807 53.8163 40.8328 54.1666 40.837C54.5127 40.8455 54.8463 40.7103 55.084 40.4568C55.3509 40.1569 55.4843 39.7598 55.4593 39.3585C55.4843 38.9445 55.3509 38.5347 55.084 38.2179Z" fill="#FAFAFA"></path>
    <path d="M66.2596 38.3869C66.0511 38.7713 65.73 39.0839 65.3422 39.274C64.8626 39.5106 64.333 39.6246 63.7993 39.612H62.6734V42.3155H60.8386V34.754H63.7993C64.3164 34.7328 64.8293 34.8342 65.3005 35.0497C65.68 35.2398 65.9969 35.5312 66.2179 35.8945C66.4222 36.2832 66.5223 36.7225 66.5098 37.1618C66.5807 37.5885 66.4931 38.0236 66.2596 38.3869ZM64.4665 37.88C64.6458 37.6899 64.7375 37.428 64.7167 37.1618C64.7292 36.8999 64.6416 36.638 64.4665 36.4437C64.2455 36.2536 63.9619 36.1607 63.6742 36.1902H62.6734V38.0912H63.6742C63.9577 38.1503 64.2496 38.0743 64.4665 37.88Z" fill="#FAFAFA"></path>
    <path d="M67.5106 37.6687C67.7274 37.221 68.0568 36.8408 68.4697 36.5704C68.87 36.3169 69.3329 36.186 69.8041 36.1902C70.1794 36.1775 70.5547 36.2663 70.8883 36.4437C71.1927 36.6 71.4512 36.8323 71.6389 37.1196V36.2747H73.4737V42.3155H71.6389V41.4707C71.4637 41.7706 71.201 42.0029 70.8883 42.1465C70.5547 42.3197 70.1794 42.4042 69.8041 42.4C69.3329 42.4 68.87 42.2733 68.4697 42.0198C68.0568 41.7495 67.7274 41.3693 67.5106 40.9215C67.2646 40.4103 67.1478 39.8443 67.177 39.274C67.152 38.7206 67.2687 38.1672 67.5106 37.6687ZM71.2219 38.2179C70.7131 37.711 69.8958 37.711 69.3871 38.2179C68.8867 38.8642 68.8867 39.7682 69.3871 40.4146C69.6206 40.6807 69.9542 40.8328 70.3045 40.837C70.6506 40.8454 70.9842 40.7103 71.2219 40.4568C71.4887 40.1569 71.6222 39.7598 71.5972 39.3585C71.6222 38.9445 71.4887 38.5347 71.2219 38.2179Z" fill="#FAFAFA"></path>
    <path d="M77.3935 36.5282C77.7187 36.3212 78.094 36.2198 78.4776 36.2325V38.1757H77.9772C77.6061 38.1461 77.235 38.2475 76.9348 38.4714C76.6887 38.7629 76.5678 39.1431 76.6012 39.5275V42.3156H74.7664V36.317H76.6012V37.3308C76.7971 37.0056 77.0724 36.7268 77.3935 36.5282Z" fill="#FAFAFA"></path>
    <path d="M82.6476 40.7525V42.3155H81.7302C81.1715 42.3493 80.621 42.1677 80.1873 41.8086C79.812 41.4707 79.6452 40.9637 79.6452 40.2034V37.8377H78.9363V36.317H79.6452V34.8384H81.48V36.317H82.6893V37.8377H81.48V40.2456C81.4675 40.385 81.5134 40.5202 81.6051 40.6258C81.7219 40.723 81.872 40.7694 82.0221 40.7525H82.6476Z" fill="#FAFAFA"></path>
    <path d="M88.9443 36.9506C89.3822 37.4786 89.6073 38.1588 89.5698 38.8516V42.3578H87.7767V39.105C87.8101 38.7671 87.7058 38.4333 87.4848 38.1757C87.0178 37.7237 86.2839 37.7237 85.8168 38.1757C85.6042 38.4333 85.4999 38.7671 85.5249 39.105V42.3578H83.6901V36.3169H85.5249V37.1196C85.7167 36.845 85.9753 36.6253 86.2755 36.4859C86.6008 36.3254 86.9594 36.2536 87.318 36.2747C87.9352 36.2325 88.5357 36.4817 88.9443 36.9506Z" fill="#FAFAFA"></path>
    <path d="M96.4086 39.7809H92.2803C92.2928 40.102 92.4263 40.4061 92.6556 40.6258C92.8766 40.8159 93.156 40.9215 93.4479 40.9215C93.8566 40.9384 94.2319 40.7061 94.407 40.3301H96.3669C96.271 40.7187 96.0875 41.082 95.8248 41.3862C95.5621 41.7072 95.2369 41.9649 94.8657 42.1466C94.4571 42.3198 94.0151 42.4043 93.573 42.4C93.0351 42.4085 92.5055 42.2775 92.0301 42.0198C91.5714 41.7664 91.1961 41.3862 90.9459 40.9215C90.6707 40.4188 90.5414 39.8485 90.5706 39.274C90.554 38.6995 90.6832 38.1334 90.9459 37.6265C91.192 37.1745 91.5506 36.7943 91.9884 36.5282C92.4763 36.2663 93.0226 36.1353 93.573 36.148C94.111 36.1395 94.6405 36.2705 95.1159 36.5282C95.5621 36.7648 95.9249 37.1323 96.1584 37.5843C96.417 38.0785 96.5462 38.6319 96.5337 39.1895C96.4336 39.3669 96.3878 39.5739 96.4086 39.7809ZM94.5738 38.7248C94.578 38.4334 94.4571 38.1546 94.2402 37.9645C94.0192 37.7744 93.7398 37.6688 93.4479 37.6688C93.1644 37.6603 92.885 37.7532 92.6556 37.9222C92.4346 38.1165 92.3012 38.3869 92.2803 38.6826H94.5738V38.7248Z" fill="#FAFAFA"></path>
    <path d="M99.9948 36.5282C100.32 36.3212 100.695 36.2198 101.079 36.2325V38.1757H100.579C100.207 38.1461 99.8364 38.2475 99.5361 38.4714C99.2901 38.7629 99.1692 39.1431 99.2025 39.5275V42.3156H97.3677V36.317H99.2025V37.3308C99.411 37.014 99.6821 36.7394 99.9948 36.5282Z" fill="#FAFAFA"></path>
    <path d="M102.997 42.1466C102.614 41.9903 102.28 41.7283 102.038 41.3862C101.796 41.0862 101.667 40.7145 101.663 40.3301H103.456C103.485 40.5329 103.589 40.7145 103.748 40.837C103.927 40.9764 104.148 41.0482 104.373 41.0482C104.561 41.0567 104.749 41.0144 104.915 40.9215C105.024 40.8455 105.091 40.7187 105.082 40.5835C105.082 40.4188 104.982 40.2709 104.832 40.2034C104.548 40.0851 104.252 39.9879 103.956 39.9077C103.585 39.8316 103.222 39.7176 102.872 39.5697C102.58 39.4514 102.326 39.2613 102.122 39.0205C101.909 38.746 101.805 38.3996 101.83 38.0489C101.817 37.7152 101.921 37.3857 102.122 37.1196C102.343 36.8323 102.63 36.6 102.956 36.4437C103.364 36.2663 103.806 36.1818 104.248 36.1902C104.878 36.1438 105.503 36.3381 106 36.7394C106.417 37.1238 106.683 37.6519 106.75 38.2179H105.082C105.053 38.0151 104.949 37.8335 104.79 37.711C104.461 37.4998 104.048 37.4871 103.706 37.6687C103.598 37.7448 103.531 37.8715 103.539 38.0067C103.539 38.1841 103.66 38.3404 103.831 38.3869C104.098 38.5009 104.377 38.5854 104.665 38.6404C105.032 38.7291 105.395 38.8431 105.749 38.9783C106.033 39.1093 106.287 39.2951 106.5 39.5275C106.725 39.8147 106.846 40.1738 106.834 40.5413C106.846 40.875 106.742 41.2045 106.542 41.4707C106.342 41.7706 106.05 41.9945 105.708 42.1043C105.299 42.2817 104.857 42.3662 104.415 42.3578C103.931 42.4296 103.439 42.3578 102.997 42.1466Z" fill="#FAFAFA"></path>
  </g>
  <defs>
    <clipPath id="clip0_50_3201">
      <rect width="104.834" height="38.2726" fill="white" transform="translate(2 7)"></rect>
    </clipPath>
  </defs>
</svg>
