<?xml version="1.0" encoding="utf-8"?>
<!-- Generator: Adobe Illustrator 27.3.1, SVG Export Plug-In . SVG Version: 6.00 Build 0)  -->
<svg version="1.1" id="Layer_1" xmlns="http://www.w3.org/2000/svg" xmlns:xlink="http://www.w3.org/1999/xlink" x="0px" y="0px"
	 viewBox="0 0 107.4 47" style="enable-background:new 0 0 107.4 47;" xml:space="preserve">
<style type="text/css">
	.st0{fill:#FFFFFF;}
</style>
<g>
	<path class="st0" d="M73,25.5c0.1-0.5,0.2-0.9,0.3-1.3c0.3-1.3,0.7-2.6,1-3.8c0.3-1,0.5-2,0.8-3c0,0,0-0.1,0-0.1
		c0,0,0.1-0.1,0.1-0.1c0.6,0,1.1,0,1.7,0c0,0,0,0,0.1,0c-0.1,0.3-0.2,0.7-0.3,1c-0.3,0.9-0.6,1.9-0.8,2.8c-0.2,0.6-0.4,1.2-0.5,1.8
		c-0.2,0.6-0.4,1.3-0.6,1.9c-0.2,0.6-0.3,1.1-0.5,1.7c-0.1,0.4-0.2,0.8-0.3,1.2c0,0.1-0.1,0.1-0.2,0.1c-0.5,0-1.1,0-1.6,0
		c-0.1,0-0.2,0-0.2-0.2c-0.1-0.5-0.3-1-0.4-1.5c-0.2-0.7-0.4-1.3-0.6-2c-0.2-0.7-0.4-1.3-0.6-2c-0.2-0.7-0.4-1.4-0.6-2.1
		c0-0.1,0-0.1-0.1-0.2c0,0.1-0.1,0.3-0.1,0.4c-0.2,0.7-0.4,1.3-0.6,2c-0.2,0.7-0.4,1.4-0.6,2.1c-0.2,0.6-0.3,1.2-0.5,1.8
		c-0.2,0.5-0.3,1-0.5,1.5c0,0.1-0.1,0.1-0.2,0.1c-0.5,0-1.1,0-1.6,0c-0.1,0-0.2,0-0.2-0.1c-0.3-0.9-0.5-1.8-0.8-2.7
		c-0.4-1.3-0.8-2.6-1.2-3.9c-0.4-1.3-0.8-2.5-1.1-3.8c0.1,0,0.1,0,0.2,0c0.5,0,1,0,1.6,0c0.1,0,0.1,0,0.1,0.1
		c0.1,0.6,0.3,1.1,0.4,1.7c0.3,1,0.6,2.1,0.8,3.1c0.3,1.1,0.5,2.1,0.8,3.2c0,0.1,0,0.1,0.1,0.3c0-0.1,0-0.1,0.1-0.2
		c0.3-1.1,0.6-2.2,0.8-3.2c0.2-0.6,0.3-1.3,0.5-1.9c0.3-0.9,0.5-1.9,0.8-2.8c0,0,0-0.1,0-0.1c0-0.1,0.1-0.1,0.2-0.1
		c0.6,0,1.2,0,1.7,0c0.1,0,0.1,0.1,0.2,0.1c0.1,0.5,0.3,1,0.4,1.5c0.3,1.2,0.6,2.3,0.9,3.5c0.3,1,0.5,2,0.8,2.9
		C72.9,25.3,73,25.3,73,25.5z"/>
	<path class="st0" d="M12.7,27.6c-0.1,0-0.1,0-0.2,0c-1.5,0-3,0-4.5,0c-0.2,0-0.2,0-0.2-0.2c0-2,0-4,0-6c0-0.1,0-0.2-0.2-0.2
		c-1-0.1-1.9-0.5-2.7-1c-1-0.7-1.7-1.6-2.2-2.7c-0.1-0.2-0.1-0.3-0.2-0.5c0.1,0,0.1,0,0.2,0c1.2,0,2.4,0,3.6,0c1.5,0,2.9,0.7,4,1.8
		c0.8,0.8,1.3,1.7,1.5,2.7c0.2,0.6,0.3,1.2,0.4,1.8c0.1,0.6,0.2,1.2,0.3,1.9c0.1,0.7,0.1,1.4,0.2,2.1C12.7,27.3,12.7,27.5,12.7,27.6
		z"/>
	<path class="st0" d="M41.1,26.9c0,0.1,0,0.2,0,0.3c0,1,0,2,0,3c0,0.1,0,0.2-0.2,0.2c-0.4,0-0.9,0-1.3,0c-0.1,0-0.2,0-0.2-0.2
		c0-0.3,0-0.7,0-1c0-2.3,0-4.7,0-7c0-0.7,0-1.3,0-2c0-0.1,0-0.2,0.1-0.2c0.5,0,0.9,0,1.4,0c0.1,0,0.2,0,0.2,0.2c0,0.2,0,0.4,0,0.7
		c0.1-0.1,0.2-0.2,0.3-0.3c0.5-0.4,1.1-0.6,1.7-0.7c0.6-0.1,1.2,0,1.7,0.2c0.7,0.3,1.3,0.8,1.7,1.4c0.3,0.5,0.4,1,0.5,1.6
		c0.1,0.6,0.1,1.2-0.1,1.9c-0.3,1.2-1,2.1-2.2,2.5c-0.2,0.1-0.4,0.1-0.6,0.2c-0.3,0.1-0.5,0-0.8,0C42.5,27.8,41.8,27.5,41.1,26.9
		C41.1,26.9,41.1,26.9,41.1,26.9z M41,23.8c0,0.2,0,0.3,0,0.5c0.1,1,0.9,2.1,2.4,2c0.8-0.1,1.6-0.7,1.8-1.5c0.1-0.4,0.2-0.9,0.1-1.3
		c-0.1-1.1-0.8-2-1.9-2.1c-0.8-0.1-1.4,0.2-1.9,0.8C41.1,22.7,41,23.2,41,23.8z"/>
	<path class="st0" d="M85,27.6c-0.1,0-0.1,0-0.2,0c-0.5,0-0.9,0-1.4,0c-0.1,0-0.2,0-0.2-0.2c0-1.5,0-3,0-4.6c0-0.8-0.6-1.4-1.4-1.5
		c-0.8-0.1-1.4,0.2-1.8,1c-0.3,0.6-0.4,1.2-0.4,1.9c0,1.1,0,2.1,0,3.2c0,0.2,0,0.2-0.2,0.2c-0.4,0-0.8,0-1.2,0c-0.2,0-0.2,0-0.2-0.2
		c0-2.4,0-4.9,0-7.3c0-1,0-2,0-3c0-0.1,0-0.2,0.2-0.2c0.4,0,0.9,0,1.3,0c0.2,0,0.2,0.1,0.2,0.2c0,1.3,0,2.5,0,3.8c0,0.1,0,0.2,0,0.3
		c0.3-0.4,0.6-0.7,0.9-0.9c0.5-0.3,1.1-0.4,1.6-0.4c0.3,0,0.5,0.1,0.8,0.1c1.1,0.2,1.9,1.3,1.9,2.3c0,1.6,0,3.1,0,4.7
		C85,27.2,85,27.4,85,27.6z"/>
	<path class="st0" d="M101.8,24.3c-0.9,0-1.8,0-2.7,0c-0.3,0-0.3,0-0.2,0.3c0.1,0.3,0.2,0.6,0.4,0.9c0.3,0.5,0.8,0.8,1.4,0.9
		c0.4,0.1,0.8,0,1.1-0.1c0.5-0.2,0.8-0.5,1-1c0-0.1,0.1-0.2,0.2-0.1c0.4,0.1,0.8,0.2,1.3,0.3c0.1,0,0.1,0.1,0.1,0.2
		c-0.2,0.7-0.7,1.3-1.3,1.7c-0.5,0.3-1,0.4-1.5,0.5c-0.2,0-0.4,0-0.6,0c-0.2,0-0.3,0-0.5,0c-0.2,0-0.4-0.1-0.6-0.1
		c-1-0.3-1.8-0.9-2.3-1.9c-0.5-0.9-0.6-1.9-0.3-2.9c0.2-1.1,0.8-2.1,1.9-2.6c0.7-0.3,1.4-0.4,2.2-0.3c0.5,0.1,0.9,0.1,1.3,0.3
		c0.9,0.5,1.5,1.2,1.9,2.2c0.2,0.5,0.2,1,0.1,1.6c0,0.1-0.1,0.2-0.2,0.2C103.7,24.2,102.7,24.3,101.8,24.3
		C101.8,24.3,101.8,24.3,101.8,24.3z M102.9,23c0-0.1,0-0.1,0-0.1c-0.1-0.5-0.3-1-0.9-1.3c-0.2-0.1-0.3-0.2-0.5-0.2
		c-0.5-0.1-1.1-0.1-1.5,0.1c-0.6,0.3-0.9,0.8-1,1.4c0,0,0,0,0,0.1C100.3,23,101.6,23,102.9,23z"/>
	<path class="st0" d="M52.8,24.3c0.1,0.3,0.1,0.5,0.2,0.7c0.6,1.4,2.2,1.6,3.3,1c0.3-0.2,0.5-0.5,0.6-0.8c0-0.1,0.1-0.1,0.2-0.1
		c0.4,0.1,0.8,0.2,1.3,0.3c0.2,0,0.2,0.1,0.1,0.2c-0.2,0.7-0.7,1.3-1.3,1.7c-0.5,0.3-1,0.4-1.5,0.5c-0.1,0-0.3,0-0.4,0
		c-0.2,0-0.4,0-0.6,0c-0.2,0-0.3,0-0.4,0c-1.1-0.2-1.9-0.7-2.4-1.6c-0.5-0.7-0.7-1.5-0.6-2.4c0-0.3,0-0.6,0.1-0.9
		c0.2-1,0.8-1.9,1.7-2.4c0.5-0.3,1-0.4,1.6-0.5c0.6,0,1.2,0,1.8,0.2c0.9,0.3,1.6,1,2,1.9c0.3,0.7,0.3,1.3,0.3,2.1
		c0,0.2-0.1,0.2-0.2,0.2c-1.5,0-2.9,0-4.4,0c-0.3,0-0.7,0-1,0C52.9,24.3,52.9,24.3,52.8,24.3z M52.9,23c1.3,0,2.6,0,4,0
		c-0.1-0.6-0.3-1.1-0.8-1.4c-0.7-0.4-1.4-0.4-2.1-0.1C53.3,21.7,53,22.3,52.9,23z"/>
	<path class="st0" d="M91.1,26.6c0,0-0.1,0.1-0.1,0.1c-0.4,0.5-0.8,0.8-1.4,1c-0.1,0-0.2,0.1-0.3,0.1c-0.2,0-0.4,0-0.5,0
		c-0.8,0.1-1.4-0.2-2-0.7c-0.4-0.4-0.6-1-0.6-1.6c0-1,0.6-1.7,1.5-2.1c0.8-0.3,1.6-0.4,2.4-0.5c0.3,0,0.6-0.1,0.9-0.1
		c0.1,0,0.1-0.1,0.1-0.2c0-0.8-0.6-1.4-1.5-1.4c-0.4,0-0.9,0-1.2,0.3c-0.3,0.2-0.5,0.6-0.6,0.9c0,0.1,0,0.1,0,0.2
		c-0.5-0.1-0.9-0.2-1.4-0.3c-0.1,0-0.1-0.1-0.1-0.2c0.1-0.3,0.2-0.6,0.3-0.9c0.5-0.8,1.2-1.2,2.1-1.4c0.6-0.1,1.2,0,1.7,0.1
		c0.8,0.1,1.3,0.6,1.8,1.2c0.3,0.4,0.4,0.9,0.4,1.5c0,1.6,0,3.2,0,4.8c0,0.1,0,0.2-0.2,0.2c-0.4,0-0.9,0-1.3,0c-0.1,0-0.2,0-0.2-0.2
		C91.1,27.2,91.1,26.9,91.1,26.6C91.1,26.6,91.1,26.6,91.1,26.6z M91.1,24.1c-0.1,0-0.2,0-0.3,0c-0.4,0-0.7,0.1-1.1,0.1
		c-0.4,0.1-0.9,0.1-1.3,0.3c-0.4,0.2-0.7,0.6-0.7,0.9c0,0.5,0.3,0.7,0.7,0.9c0.3,0.1,0.5,0.1,0.8,0.1c0.6-0.1,1.1-0.3,1.4-0.8
		C91,25.2,91.2,24.7,91.1,24.1z"/>
	<path class="st0" d="M25.3,23.1c0-1.4,0-2.9,0-4.3c0-0.2-0.1-0.2-0.2-0.2c-1,0-1.9,0-2.9,0c-0.2,0-0.2,0-0.2-0.2c0-0.4,0-0.8,0-1.2
		c0-0.2,0.1-0.2,0.2-0.2c0.2,0,0.4,0,0.6,0c2.4,0,4.8,0,7.3,0c0.2,0,0.2,0,0.2,0.2c0,0.4,0,0.8,0,1.2c0,0.1,0,0.2-0.2,0.2
		c-1,0-1.9,0-2.9,0c-0.2,0-0.2,0-0.2,0.2c0,2.9,0,5.7,0,8.6c0,0.2,0,0.2-0.2,0.2c-0.5,0-0.9,0-1.4,0c-0.1,0-0.2,0-0.2-0.2
		C25.3,26,25.3,24.6,25.3,23.1C25.3,23.1,25.3,23.1,25.3,23.1z"/>
	<path class="st0" d="M10.6,18c0.6-0.4,1.3-0.8,2.1-0.9C13.1,17,13.6,17,14,17c1.1,0,2.1,0,3.2,0c0,0,0.1,0,0.2,0
		c0,0.1,0,0.2-0.1,0.2c-0.4,1.1-0.9,2-1.8,2.8c-0.7,0.6-1.5,0.9-2.3,1.1c-0.1,0-0.3,0.1-0.4,0.1c-0.1,0-0.2,0-0.2-0.2
		c-0.2-0.9-0.6-1.7-1.2-2.3C11.1,18.5,10.8,18.2,10.6,18z"/>
	<path class="st0" d="M48.3,22.3c0-1.7,0-3.4,0-5.1c0-0.2,0-0.2,0.2-0.2c0.4,0,0.9,0,1.3,0c0.1,0,0.2,0,0.2,0.2c0,0.1,0,0.2,0,0.3
		c0,3.3,0,6.6,0,9.9c0,0.3,0,0.3-0.3,0.3c-0.4,0-0.8,0-1.2,0c-0.1,0-0.2,0-0.2-0.2C48.3,25.8,48.3,24,48.3,22.3
		C48.3,22.3,48.3,22.3,48.3,22.3z"/>
	<path class="st0" d="M96.1,22.3c0,1.7,0,3.3,0,5c0,0.1,0,0.1,0,0.2c0,0.1,0,0.1-0.1,0.1c-0.5,0-0.9,0-1.4,0c-0.1,0-0.2,0-0.2-0.2
		c0-3.4,0-6.8,0-10.2c0-0.4,0-0.3,0.3-0.3c0.4,0,0.8,0,1.2,0c0.2,0,0.2,0,0.2,0.2C96,18.9,96,20.6,96.1,22.3
		C96,22.3,96,22.3,96.1,22.3z"/>
	<path class="st0" d="M30.5,20.1c0.6,0,1.1,0,1.7,0c0,0.4,0,0.9,0,1.3c0,0,0,0,0,0c0,0,0-0.1,0.1-0.1c0.5-0.8,1.1-1.3,2.1-1.3
		c0.3,0,0.6,0.1,0.9,0.1c0,0,0.1,0.1,0.1,0.1c0,0.5,0,1-0.1,1.5c0,0,0,0,0,0c-0.2,0-0.4-0.1-0.5-0.1c-1-0.2-1.7,0.3-2.1,1.1
		c-0.3,0.7-0.4,1.4-0.4,2.1c0,0.9,0,1.8,0,2.7c0,0.1,0,0.1,0,0.2c-0.1,0-0.1,0-0.2,0c-0.4,0-0.9,0-1.3,0c-0.1,0-0.2,0-0.2-0.2
		c0-1.2,0-2.5,0-3.7c0-1.2,0-2.3,0-3.5C30.5,20.2,30.5,20.1,30.5,20.1z"/>
	<path class="st0" d="M36.1,23.8c0-1.2,0-2.4,0-3.6c0-0.1,0-0.2,0.1-0.2c0.5,0,0.9,0,1.4,0c0.1,0,0.1,0,0.1,0.1c0,2.4,0,4.9,0,7.3
		c0,0.1,0,0.2-0.2,0.2c-0.5,0-0.9,0-1.4,0c-0.1,0-0.1,0-0.1-0.1c0-1.2,0-2.3,0-3.5C36.1,24,36.1,23.9,36.1,23.8
		C36.1,23.8,36.1,23.8,36.1,23.8z"/>
	<path class="st0" d="M38.1,17.7c0,0.6-0.5,1-1.1,1c-0.8,0-1.1-0.6-1.1-1c0-0.7,0.4-1.1,1.1-1.1C37.6,16.6,38,17.1,38.1,17.7z"/>
</g>
</svg>
