<svg xmlns="http://www.w3.org/2000/svg" width="293" height="73" viewBox="0 0 293 73" fill="none"><path d="M0 18.7036L31.4061 0L62.9585 18.4135L31.4761 36.969L0 18.7036Z" fill="#51D3EC"></path><path d="M31.4761 36.9443V72.438L0.0636047 53.9319L0 18.7036L31.4761 36.9443Z" fill="#40BFF9"></path><path d="M31.4761 36.9443V72.4442L62.8885 53.9319L62.9585 18.4135L31.4761 36.9443Z" fill="#51CEF4"></path><path d="M85.2131 42.9543C83.8807 42.2575 82.8264 41.2907 82.0632 40.054C81.3 38.8173 80.9183 37.4237 80.9183 35.8605C80.9183 34.2974 81.3 32.9038 82.0632 31.6734C82.8264 30.4367 83.8742 29.4699 85.2131 28.7731C86.5456 28.0763 88.0462 27.7247 89.7149 27.7247C91.1185 27.7247 92.3862 27.9633 93.5246 28.4467C94.663 28.93 95.6138 29.6143 96.3835 30.512L93.9774 32.6715C92.8843 31.4411 91.526 30.8259 89.9025 30.8259C88.8999 30.8259 88.0009 31.0393 87.2182 31.4662C86.4291 31.8931 85.8147 32.4895 85.3748 33.2553C84.935 34.0212 84.7151 34.8875 84.7151 35.8605C84.7151 36.8336 84.935 37.6999 85.3748 38.4658C85.8147 39.2316 86.4291 39.828 87.2182 40.2486C88.0073 40.6755 88.8999 40.8889 89.9025 40.8889C91.526 40.8889 92.8778 40.2674 93.9774 39.0245L96.3835 41.184C95.6138 42.1005 94.6565 42.7973 93.5117 43.2744C92.3668 43.7515 91.0991 43.9964 89.689 43.9964C88.0397 43.9964 86.5456 43.6511 85.2067 42.9543H85.2131Z" fill="white"></path><path d="M107.567 32.7971C108.602 33.6885 109.119 35.0319 109.119 36.8273V43.7264H105.736V42.2198C105.057 43.3435 103.789 43.9022 101.94 43.9022C100.982 43.9022 100.154 43.7452 99.4494 43.4314C98.7444 43.1175 98.2075 42.6843 97.8388 42.1256C97.4702 41.5732 97.2826 40.9454 97.2826 40.236C97.2826 39.1123 97.716 38.2272 98.5891 37.5869C99.4623 36.9403 100.808 36.6201 102.632 36.6201H105.504C105.504 35.8543 105.264 35.2704 104.786 34.8561C104.307 34.4418 103.589 34.2409 102.632 34.2409C101.965 34.2409 101.319 34.3414 100.678 34.5422C100.038 34.7431 99.4947 35.0193 99.0484 35.3646L97.7548 32.9163C98.4339 32.4518 99.2489 32.094 100.2 31.8366C101.151 31.5792 102.127 31.4536 103.13 31.4536C105.057 31.4536 106.538 31.8993 107.573 32.7908L107.567 32.7971ZM104.488 41.1337C104.967 40.8575 105.303 40.4495 105.51 39.9096V38.6729H103.033C101.552 38.6729 100.808 39.1437 100.808 40.0854C100.808 40.5374 100.989 40.8889 101.351 41.1526C101.713 41.4162 102.211 41.5481 102.845 41.5481C103.479 41.5481 104.009 41.41 104.488 41.1337Z" fill="white"></path><path d="M117.114 31.9056C117.845 31.6043 118.692 31.4536 119.649 31.4536V34.6866C119.248 34.6552 118.977 34.6427 118.841 34.6427C117.806 34.6427 116.997 34.9252 116.409 35.4839C115.82 36.0489 115.529 36.8901 115.529 38.0138V43.7201H111.92V31.6294H115.367V33.2239C115.801 32.6401 116.383 32.2007 117.114 31.8993V31.9056Z" fill="white"></path><path d="M131.861 32.2321C132.812 32.7468 133.555 33.4751 134.092 34.4104C134.629 35.3458 134.901 36.4381 134.901 37.6811C134.901 38.924 134.629 40.0163 134.092 40.9517C133.549 41.8871 132.805 42.6153 131.861 43.13C130.91 43.6448 129.856 43.9022 128.698 43.9022C126.984 43.9022 125.677 43.3812 124.785 42.3328V43.7264H121.337V27.053H124.946V32.9164C125.858 31.9433 127.107 31.4537 128.698 31.4537C129.856 31.4537 130.91 31.711 131.861 32.2321ZM130.354 40.1168C130.949 39.5079 131.246 38.698 131.246 37.6811C131.246 36.6641 130.949 35.848 130.354 35.2453C129.759 34.6364 129.002 34.3351 128.071 34.3351C127.139 34.3351 126.382 34.6364 125.787 35.2453C125.192 35.8543 124.895 36.6641 124.895 37.6811C124.895 38.698 125.192 39.5141 125.787 40.1168C126.382 40.7257 127.139 41.027 128.071 41.027C129.002 41.027 129.759 40.7257 130.354 40.1168Z" fill="white"></path><path d="M139.247 43.1112C138.206 42.5776 137.391 41.8431 136.803 40.8952C136.214 39.9535 135.923 38.8801 135.923 37.681C135.923 36.482 136.214 35.4086 136.803 34.4669C137.391 33.5253 138.206 32.7845 139.247 32.2509C140.289 31.7173 141.466 31.4536 142.779 31.4536C144.092 31.4536 145.263 31.7173 146.298 32.2509C147.333 32.7845 148.141 33.519 148.73 34.4669C149.318 35.4086 149.609 36.482 149.609 37.681C149.609 38.8801 149.318 39.9535 148.73 40.8952C148.141 41.8368 147.333 42.5776 146.298 43.1112C145.263 43.6448 144.092 43.9085 142.779 43.9085C141.466 43.9085 140.289 43.6448 139.247 43.1112ZM145.056 40.123C145.651 39.5141 145.948 38.7043 145.948 37.6873C145.948 36.6703 145.651 35.8543 145.056 35.2516C144.461 34.6427 143.704 34.3413 142.773 34.3413C141.841 34.3413 141.084 34.6427 140.483 35.2516C139.881 35.8605 139.577 36.6703 139.577 37.6873C139.577 38.7043 139.881 39.5204 140.483 40.123C141.084 40.732 141.848 41.0333 142.773 41.0333C143.697 41.0333 144.461 40.732 145.056 40.123Z" fill="white"></path><path d="M162.862 32.8096C163.813 33.7073 164.285 35.0445 164.285 36.8085V43.7264H160.676V37.3421C160.676 36.3816 160.463 35.666 160.029 35.1951C159.596 34.7243 158.975 34.4858 158.154 34.4858C157.242 34.4858 156.517 34.762 155.98 35.3081C155.437 35.8543 155.172 36.6704 155.172 37.7438V43.7202H151.563V31.6294H155.01V33.0419C155.489 32.5334 156.084 32.1379 156.795 31.8617C157.507 31.5855 158.283 31.4474 159.137 31.4474C160.683 31.4474 161.924 31.8994 162.875 32.7971L162.862 32.8096Z" fill="white"></path><path d="M187.506 36.9717C188.03 37.6371 188.295 38.4595 188.295 39.4325C188.295 40.8136 187.745 41.8682 186.639 42.609C185.533 43.3498 183.929 43.7201 181.814 43.7201H173.431V27.9947H181.348C183.321 27.9947 184.841 28.3588 185.895 29.0933C186.949 29.8277 187.48 30.8259 187.48 32.0814C187.48 32.8473 187.292 33.5253 186.911 34.1279C186.535 34.7243 186.005 35.2014 185.326 35.5404C186.251 35.8229 186.975 36.3 187.499 36.9654L187.506 36.9717ZM177.157 30.738V34.4481H180.882C181.807 34.4481 182.512 34.2911 182.991 33.9773C183.47 33.6634 183.709 33.1988 183.709 32.5836C183.709 31.9684 183.47 31.5101 182.991 31.2025C182.512 30.8949 181.807 30.7443 180.882 30.7443H177.157V30.738ZM183.767 40.5123C184.265 40.1984 184.517 39.7087 184.517 39.0496C184.517 37.7438 183.521 37.0972 181.529 37.0972H177.157V40.9831H181.529C182.519 40.9831 183.263 40.8261 183.761 40.5123H183.767Z" fill="white"></path><path d="M192.816 43.1112C191.775 42.5776 190.96 41.8431 190.371 40.8952C189.782 39.9535 189.491 38.8801 189.491 37.681C189.491 36.482 189.782 35.4086 190.371 34.4669C190.96 33.5253 191.775 32.7845 192.816 32.2509C193.857 31.7173 195.034 31.4536 196.347 31.4536C197.661 31.4536 198.831 31.7173 199.866 32.2509C200.901 32.7845 201.71 33.519 202.298 34.4669C202.887 35.4086 203.178 36.482 203.178 37.681C203.178 38.8801 202.887 39.9535 202.298 40.8952C201.71 41.8368 200.901 42.5776 199.866 43.1112C198.831 43.6448 197.661 43.9085 196.347 43.9085C195.034 43.9085 193.857 43.6448 192.816 43.1112ZM198.624 40.123C199.219 39.5141 199.517 38.7043 199.517 37.6873C199.517 36.6703 199.219 35.8543 198.624 35.2516C198.029 34.6427 197.272 34.3413 196.341 34.3413C195.41 34.3413 194.653 34.6427 194.051 35.2516C193.45 35.8605 193.146 36.6703 193.146 37.6873C193.146 38.7043 193.45 39.5204 194.051 40.123C194.653 40.732 195.416 41.0333 196.341 41.0333C197.266 41.0333 198.029 40.732 198.624 40.123Z" fill="white"></path><path d="M212.647 43.7264L209.918 40.0163L207.091 43.7264H203.158L207.951 37.6371L203.32 31.6357H207.369L210.008 35.1637L212.718 31.6357H216.56L211.929 37.5429L216.741 43.7201H212.641L212.647 43.7264Z" fill="white"></path><path d="M239.127 43.7264L239.102 34.2911L234.335 42.0628H232.646L227.899 34.492V43.7264H224.38V28.001H227.485L233.552 37.7752L239.522 28.001H242.601L242.646 43.7264H239.127Z" fill="white"></path><path d="M257.904 38.6729H248.48C248.648 39.42 249.049 40.0163 249.683 40.4495C250.317 40.8827 251.1 41.1024 252.044 41.1024C252.691 41.1024 253.267 41.0082 253.771 40.8199C254.276 40.6315 254.741 40.3365 255.175 39.9347L257.096 41.9561C255.925 43.2619 254.211 43.9085 251.953 43.9085C250.55 43.9085 249.308 43.6448 248.228 43.1112C247.148 42.5776 246.313 41.8431 245.725 40.8952C245.136 39.9536 244.845 38.8801 244.845 37.6811C244.845 36.482 245.136 35.4337 245.712 34.4795C246.287 33.5315 247.083 32.7845 248.099 32.2572C249.108 31.7236 250.239 31.4599 251.488 31.4599C252.736 31.4599 253.81 31.7173 254.799 32.2258C255.789 32.7343 256.565 33.4625 257.128 34.4167C257.691 35.3709 257.975 36.4758 257.975 37.7313C257.975 37.7752 257.949 38.0891 257.904 38.6729ZM249.457 34.7871C248.901 35.2391 248.564 35.848 248.441 36.6264H254.573C254.45 35.8605 254.107 35.2516 253.551 34.7933C252.995 34.3351 252.316 34.1091 251.514 34.1091C250.712 34.1091 250.007 34.3351 249.45 34.7808L249.457 34.7871Z" fill="white"></path><path d="M272.606 27.053V43.7264H269.159V42.3328C268.266 43.3812 266.966 43.9022 265.271 43.9022C264.101 43.9022 263.04 43.6448 262.089 43.1363C261.138 42.6278 260.394 41.8996 259.858 40.958C259.321 40.0163 259.049 38.9178 259.049 37.6748C259.049 36.4318 259.321 35.3395 259.858 34.3916C260.394 33.4499 261.145 32.7217 262.089 32.2133C263.033 31.7048 264.101 31.4474 265.271 31.4474C266.863 31.4474 268.104 31.937 268.997 32.9101V27.0468H272.606V27.053ZM268.163 40.1168C268.764 39.5079 269.068 38.698 269.068 37.6811C269.068 36.6641 268.771 35.848 268.163 35.2453C267.561 34.6364 266.804 34.3351 265.892 34.3351C264.98 34.3351 264.204 34.6364 263.603 35.2453C263.001 35.8543 262.697 36.6641 262.697 37.6811C262.697 38.698 263.001 39.5141 263.603 40.1168C264.204 40.7257 264.967 41.027 265.892 41.027C266.817 41.027 267.561 40.7257 268.163 40.1168Z" fill="white"></path><path d="M275.659 29.3946C275.245 29.0179 275.032 28.5534 275.032 28.001C275.032 27.4485 275.239 26.984 275.659 26.6073C276.073 26.2307 276.616 26.0423 277.283 26.0423C277.949 26.0423 278.486 26.2244 278.906 26.5822C279.32 26.94 279.533 27.392 279.533 27.9319C279.533 28.5157 279.326 28.9991 278.906 29.382C278.486 29.765 277.949 29.9533 277.283 29.9533C276.616 29.9533 276.079 29.765 275.659 29.3946ZM275.471 31.642H279.081V43.7327H275.471V31.642Z" fill="white"></path><path d="M291.448 32.7971C292.482 33.6885 293 35.0319 293 36.8273V43.7264H289.617V42.2198C288.938 43.3435 287.67 43.9022 285.82 43.9022C284.863 43.9022 284.035 43.7452 283.33 43.4314C282.625 43.1175 282.088 42.6843 281.72 42.1256C281.351 41.5732 281.163 40.9454 281.163 40.236C281.163 39.1123 281.597 38.2272 282.47 37.5869C283.343 36.9403 284.688 36.6201 286.512 36.6201H289.384C289.384 35.8543 289.145 35.2704 288.666 34.8561C288.188 34.4418 287.47 34.2409 286.512 34.2409C285.846 34.2409 285.193 34.3414 284.559 34.5422C283.919 34.7431 283.375 35.0193 282.929 35.3646L281.636 32.9163C282.315 32.4518 283.13 32.094 284.08 31.8366C285.031 31.5792 286.008 31.4536 287.01 31.4536C288.938 31.4536 290.419 31.8993 291.454 32.7908L291.448 32.7971ZM288.369 41.1337C288.847 40.8575 289.184 40.4495 289.384 39.9096V38.6729H286.907C285.426 38.6729 284.682 39.1437 284.682 40.0854C284.682 40.5374 284.863 40.8889 285.225 41.1526C285.587 41.4162 286.086 41.5481 286.719 41.5481C287.353 41.5481 287.884 41.41 288.362 41.1337H288.369Z" fill="white"></path></svg>